<?xml version="1.0" encoding="iso-8859-1"?>
<!-- Generator: Adobe Illustrator 17.0.0, SVG Export Plug-In . SVG Version: 6.00 Build 0)  -->
<!DOCTYPE svg PUBLIC "-//W3C//DTD SVG 1.1//EN" "http://www.w3.org/Graphics/SVG/1.1/DTD/svg11.dtd">
<svg version="1.1" id="_x30_17_x5F_cloud_x5F_storage"
	 xmlns="http://www.w3.org/2000/svg" xmlns:xlink="http://www.w3.org/1999/xlink" x="0px" y="0px" width="66px" height="50px"
	 viewBox="0 0 66 50" style="enable-background:new 0 0 66 50;" xml:space="preserve">
<g>
	<path style="fill:#FFFFFF;" d="M23,37H10c-4.971,0-9-4.029-9-9c0-4.97,4.029-9,9-9h0.059c0.498-4.5,4.309-8,8.941-8h2.18
		C22.134,5.327,27.056,1,33,1s10.866,4.327,11.82,10H47c4.632,0,8.443,3.5,8.941,8H56c4.971,0,9,4.03,9,9c0,4.971-4.029,9-9,9H43"/>
	<rect x="21" y="41" style="fill:#35C9CB;" width="24" height="8"/>
	<rect x="21" y="33" style="fill:#FF4A63;" width="24" height="8"/>
	<rect x="21" y="25" style="fill:#F9E765;" width="24" height="8"/>
	<path style="fill:none;stroke:#020210;stroke-width:2;stroke-linecap:round;stroke-linejoin:round;stroke-miterlimit:10;" d="
		M17,37h-7c-4.971,0-9-4.029-9-9c0-4.97,4.029-9,9-9h0.059c0.498-4.5,4.309-8,8.941-8h2.18C22.134,5.327,27.056,1,33,1
		s10.866,4.327,11.82,10H47c4.632,0,8.443,3.5,8.941,8H56c4.971,0,9,4.03,9,9c0,4.971-4.029,9-9,9h-7"/>
	
		<line style="fill:none;stroke:#020210;stroke-width:2;stroke-linecap:round;stroke-linejoin:round;stroke-miterlimit:10;" x1="15" y1="39" x2="17" y2="37"/>
	
		<line style="fill:none;stroke:#020210;stroke-width:2;stroke-linecap:round;stroke-linejoin:round;stroke-miterlimit:10;" x1="17" y1="37" x2="15" y2="35"/>
	
		<line style="fill:none;stroke:#020210;stroke-width:2;stroke-linecap:round;stroke-linejoin:round;stroke-miterlimit:10;" x1="49" y1="37" x2="51" y2="39"/>
	
		<line style="fill:none;stroke:#020210;stroke-width:2;stroke-linecap:round;stroke-linejoin:round;stroke-miterlimit:10;" x1="49" y1="37" x2="51" y2="35"/>
	
		<line style="fill:none;stroke:#020210;stroke-width:2;stroke-linecap:round;stroke-linejoin:round;stroke-miterlimit:10;" x1="21" y1="33" x2="45" y2="33"/>
	
		<line style="fill:none;stroke:#020210;stroke-width:2;stroke-linecap:round;stroke-linejoin:round;stroke-miterlimit:10;" x1="21" y1="41" x2="45" y2="41"/>
	
		<line style="fill:none;stroke:#020210;stroke-width:2;stroke-linecap:round;stroke-linejoin:round;stroke-miterlimit:10;" x1="41" y1="45" x2="41" y2="45"/>
	
		<line style="fill:none;stroke:#020210;stroke-width:2;stroke-linecap:round;stroke-linejoin:round;stroke-miterlimit:10;" x1="41" y1="37" x2="41" y2="37"/>
	
		<line style="fill:none;stroke:#020210;stroke-width:2;stroke-linecap:round;stroke-linejoin:round;stroke-miterlimit:10;" x1="41" y1="29" x2="41" y2="29"/>
	
		<rect x="21" y="25" style="fill:none;stroke:#020210;stroke-width:2;stroke-linecap:round;stroke-linejoin:round;stroke-miterlimit:10;" width="24" height="24"/>
	
		<line style="fill:none;stroke:#020210;stroke-width:2;stroke-linecap:round;stroke-linejoin:round;stroke-miterlimit:10;" x1="25" y1="29" x2="29" y2="29"/>
	
		<line style="fill:none;stroke:#020210;stroke-width:2;stroke-linecap:round;stroke-linejoin:round;stroke-miterlimit:10;" x1="25" y1="37" x2="29" y2="37"/>
	
		<line style="fill:none;stroke:#020210;stroke-width:2;stroke-linecap:round;stroke-linejoin:round;stroke-miterlimit:10;" x1="25" y1="45" x2="29" y2="45"/>
</g>
</svg>
