<?xml version="1.0" encoding="iso-8859-1"?>
<!-- Generator: Adobe Illustrator 17.0.0, SVG Export Plug-In . SVG Version: 6.00 Build 0)  -->
<!DOCTYPE svg PUBLIC "-//W3C//DTD SVG 1.1//EN" "http://www.w3.org/Graphics/SVG/1.1/DTD/svg11.dtd">
<svg version="1.1" id="_x30_39_x5F_mechanization" xmlns="http://www.w3.org/2000/svg" xmlns:xlink="http://www.w3.org/1999/xlink"
	 x="0px" y="0px" width="58px" height="66.001px" viewBox="0 0 58 66.001" style="enable-background:new 0 0 58 66.001;"
	 xml:space="preserve">
<g>
	<rect x="37" y="17.001" style="fill:#D1D1D1;" width="8" height="4"/>
	<polygon style="fill:#D1D1D1;" points="33,41.001 33,25.001 49,25.001 49,41.001 53,37.001 53,21.001 29,21.001 29,37.001 	"/>
	<g>
		<path style="fill:#35C9CB;" d="M16.997,15.002c-1.792,0-3.423-1.214-3.878-3.03c-0.535-2.144,0.767-4.315,2.911-4.852l24-6
			c2.139-0.535,4.313,0.768,4.851,2.91c0.535,2.144-0.768,4.315-2.911,4.852l-24,6C17.645,14.963,17.318,15.002,16.997,15.002z"/>
	</g>
	<g>
		<path style="fill:none;stroke:#020210;stroke-width:2;stroke-linecap:round;stroke-linejoin:round;stroke-miterlimit:10;" d="
			M16.997,15.002c-1.792,0-3.423-1.214-3.878-3.03c-0.535-2.144,0.767-4.315,2.911-4.852l24-6c2.139-0.535,4.313,0.768,4.851,2.91
			c0.535,2.144-0.768,4.315-2.911,4.852l-24,6C17.645,14.963,17.318,15.002,16.997,15.002z"/>
	</g>
	<g>
		<path style="fill:#35C9CB;" d="M9,37.002c-0.454,0-0.916-0.077-1.367-0.241c-2.076-0.756-3.146-3.051-2.392-5.127l8-22
			c0.755-2.076,3.051-3.147,5.126-2.393c2.076,0.756,3.146,3.051,2.392,5.127l-8,22C12.168,35.993,10.634,37.002,9,37.002z"/>
	</g>
	<g>
		<path style="fill:none;stroke:#020210;stroke-width:2;stroke-linecap:round;stroke-linejoin:round;stroke-miterlimit:10;" d="
			M9,37.002c-0.454,0-0.916-0.077-1.367-0.241c-2.076-0.756-3.146-3.051-2.392-5.127l8-22c0.755-2.076,3.051-3.147,5.126-2.393
			c2.076,0.756,3.146,3.051,2.392,5.127l-8,22C12.168,35.993,10.634,37.002,9,37.002z"/>
	</g>
	<circle style="fill:#35C9CB;" cx="9" cy="33.001" r="8"/>
	<rect x="1" y="33.001" style="fill:#35C9CB;" width="16" height="32"/>
	<rect x="33" y="45.001" style="fill:#F9E765;" width="16" height="16"/>
	
		<line style="fill:none;stroke:#020210;stroke-width:2;stroke-linecap:round;stroke-linejoin:round;stroke-miterlimit:10;" x1="17" y1="65.001" x2="17" y2="33.001"/>
	
		<line style="fill:none;stroke:#020210;stroke-width:2;stroke-linecap:round;stroke-linejoin:round;stroke-miterlimit:10;" x1="1" y1="65.001" x2="1" y2="33.001"/>
	
		<circle style="fill:none;stroke:#020210;stroke-width:2;stroke-linecap:round;stroke-linejoin:round;stroke-miterlimit:10;" cx="9" cy="33.001" r="8"/>
	
		<circle style="fill:none;stroke:#020210;stroke-width:2;stroke-linecap:round;stroke-linejoin:round;stroke-miterlimit:10;" cx="9" cy="33.001" r="4"/>
	
		<line style="fill:none;stroke:#020210;stroke-width:2;stroke-linecap:round;stroke-linejoin:round;stroke-miterlimit:10;" x1="9" y1="37.001" x2="9" y2="29.001"/>
	
		<line style="fill:none;stroke:#020210;stroke-width:2;stroke-linecap:round;stroke-linejoin:round;stroke-miterlimit:10;" x1="5" y1="45.001" x2="5" y2="65.001"/>
	
		<line style="fill:none;stroke:#020210;stroke-width:2;stroke-linecap:round;stroke-linejoin:round;stroke-miterlimit:10;" x1="13" y1="45.001" x2="13" y2="65.001"/>
	
		<circle style="fill:none;stroke:#020210;stroke-width:2;stroke-linecap:round;stroke-linejoin:round;stroke-miterlimit:10;" cx="41" cy="5.001" r="4"/>
	
		<line style="fill:none;stroke:#020210;stroke-width:2;stroke-linecap:round;stroke-linejoin:round;stroke-miterlimit:10;" x1="41" y1="9.001" x2="41" y2="17.001"/>
	
		<line style="fill:none;stroke:#020210;stroke-width:2;stroke-linecap:round;stroke-linejoin:round;stroke-miterlimit:10;" x1="45" y1="5.001" x2="37" y2="5.001"/>
	
		<polygon style="fill:none;stroke:#020210;stroke-width:2;stroke-linecap:round;stroke-linejoin:round;stroke-miterlimit:10;" points="
		33,41.001 33,25.001 49,25.001 49,41.001 53,37.001 53,21.001 29,21.001 29,37.001 	"/>
	
		<rect x="37" y="17.001" style="fill:none;stroke:#020210;stroke-width:2;stroke-linecap:round;stroke-linejoin:round;stroke-miterlimit:10;" width="8" height="4"/>
	
		<line style="fill:none;stroke:#020210;stroke-width:2;stroke-linecap:round;stroke-linejoin:round;stroke-miterlimit:10;" x1="49" y1="29.001" x2="53" y2="29.001"/>
	
		<line style="fill:none;stroke:#020210;stroke-width:2;stroke-linecap:round;stroke-linejoin:round;stroke-miterlimit:10;" x1="49" y1="33.001" x2="53" y2="33.001"/>
	
		<line style="fill:none;stroke:#020210;stroke-width:2;stroke-linecap:round;stroke-linejoin:round;stroke-miterlimit:10;" x1="29" y1="33.001" x2="33" y2="33.001"/>
	
		<line style="fill:none;stroke:#020210;stroke-width:2;stroke-linecap:round;stroke-linejoin:round;stroke-miterlimit:10;" x1="29" y1="29.001" x2="33" y2="29.001"/>
	
		<rect x="33" y="45.001" style="fill:none;stroke:#020210;stroke-width:2;stroke-linecap:round;stroke-linejoin:round;stroke-miterlimit:10;" width="16" height="16"/>
	
		<rect x="37" y="49.001" style="fill:none;stroke:#020210;stroke-width:2;stroke-linecap:round;stroke-linejoin:round;stroke-miterlimit:10;" width="8" height="8"/>
	
		<line style="fill:none;stroke:#020210;stroke-width:2;stroke-linecap:round;stroke-linejoin:round;stroke-miterlimit:10;" x1="37" y1="57.001" x2="45" y2="49.001"/>
	
		<line style="fill:none;stroke:#020210;stroke-width:2;stroke-linecap:round;stroke-linejoin:round;stroke-miterlimit:10;" x1="41" y1="29.001" x2="41" y2="41.001"/>
	
		<line style="fill:none;stroke:#020210;stroke-width:2;stroke-linecap:round;stroke-linejoin:round;stroke-miterlimit:10;" x1="41" y1="41.001" x2="39" y2="39.001"/>
	
		<line style="fill:none;stroke:#020210;stroke-width:2;stroke-linecap:round;stroke-linejoin:round;stroke-miterlimit:10;" x1="41" y1="41.001" x2="43" y2="39.001"/>
	
		<line style="fill:none;stroke:#020210;stroke-width:2;stroke-linecap:round;stroke-linejoin:round;stroke-miterlimit:10;stroke-dasharray:0,4;" x1="25" y1="65.001" x2="57" y2="65.001"/>
	
		<circle style="fill:none;stroke:#020210;stroke-width:2;stroke-linecap:round;stroke-linejoin:round;stroke-miterlimit:10;" cx="17" cy="11.001" r="4"/>
	
		<line style="fill:none;stroke:#020210;stroke-width:2;stroke-linecap:round;stroke-linejoin:round;stroke-miterlimit:10;" x1="14.171" y1="13.829" x2="19.829" y2="8.173"/>
</g>
</svg>
