<?xml version="1.0" encoding="UTF-8" standalone="no"?>
<svg width="2945px" height="476px" viewBox="0 0 2945 476" version="1.1" xmlns="http://www.w3.org/2000/svg" xmlns:xlink="http://www.w3.org/1999/xlink">
    <!-- Generator: Sketch 41.2 (35397) - http://www.bohemiancoding.com/sketch -->
    <title>Slice 1</title>
    <desc>Created with Sketch.</desc>
    <defs></defs>
    <g id="Page-1" stroke="none" stroke-width="1" fill="none" fill-rule="evenodd">
        <g id="logo-raw-color" transform="translate(0.000000, 100.000000)">
            <g id="Page-1">
                <g id="logo-blue">
                    <g id="Group-4">
                        <rect id="Rectangle-21" fill="#D1163D" transform="translate(629.902988, 133.091425) rotate(25.000000) translate(-629.902988, -133.091425) " x="614.308101" y="-1.47916637e-07" width="31.1897733" height="266.18285" rx="15.5948866"></rect>
                        <path d="M24.0694834,150.282751 C24.3954052,150.495634 24.7313993,150.698271 25.0772738,150.889992 L31.0927213,154.224409 L35.6108407,156.760117 L35.62928,156.739065 L146.76673,218.343559 C154.499791,222.630065 164.238069,219.836625 168.522694,212.106958 C172.80826,204.375591 170.01359,194.637246 162.282727,190.351958 L65.2825905,136.583905 L161.389257,81.096695 C169.046331,76.6758814 171.667469,66.8898196 167.248596,59.2361069 C162.828751,51.5807112 153.041998,48.9605926 145.387102,53.3801493 L53.4151574,106.480176 L53.4220516,106.460591 L0.237180976,136.907328 L24.0694834,150.282751 Z" id="Combined-Shape" fill="#D1163D"></path>
                        <path d="M746.061225,151.187039 C746.387147,151.399923 746.723141,151.602559 747.069016,151.79428 L753.084463,155.128697 L757.602582,157.664405 L757.621022,157.643353 L868.758472,219.247847 C876.491533,223.534353 886.229811,220.740913 890.514436,213.011246 C894.800002,205.279879 892.005332,195.541534 884.274469,191.256247 L787.274332,137.488193 L883.380999,82.0009834 C891.038072,77.5801697 893.659211,67.794108 889.240338,60.1403952 C884.820493,52.4849996 875.03374,49.8648809 867.378843,54.2844376 L775.406899,107.384464 L775.413793,107.364879 L722.228923,137.811616 L746.061225,151.187039 Z" id="Combined-Shape" fill="#D1163D" transform="translate(807.376396, 136.697576) rotate(180.000000) translate(-807.376396, -136.697576) "></path>
                        <g id="Group-3" transform="translate(214.652058, 0.000000)">
                            <rect id="Rectangle-8" fill="#54B8EA" x="0" y="0" width="304.782205" height="275" rx="14"></rect>
                            <path d="M304.782205,34.4894958 L304.782205,13.9951464 C304.782205,6.27544136 298.513814,0 290.781362,0 L14.0008428,0 C6.26100502,0 0,6.26584047 0,13.9951464 L0,34.4894958 L0,50.9698276 L304.782205,50.9698276 L304.782205,34.4894958 Z" id="Combined-Shape" fill="#399FD2"></path>
                            <ellipse id="Oval-7" fill="#FF6059" cx="23.125498" cy="25.4849138" rx="11.2662683" ry="11.2607759"></ellipse>
                            <ellipse id="Oval-7" fill="#FFBD2E" cx="50.4017264" cy="25.4849138" rx="11.2662683" ry="11.2607759"></ellipse>
                            <ellipse id="Oval-7" fill="#29CE42" cx="76.4920319" cy="25.4849138" rx="11.2662683" ry="11.2607759"></ellipse>
                            <g id="Group" opacity="0.4" transform="translate(29.000000, 88.000000)" fill="#FFFFFF">
                                <path d="M0.648074369,136.030172 L247.320053,136.030172 L247.320053,149.068966 L0.648074369,149.068966 L0.648074369,136.030172 Z M0.648074369,101.655172 L247.320053,101.655172 L247.320053,114.693966 L0.648074369,114.693966 L0.648074369,101.655172 Z M0.648074369,67.2801724 L114.914348,67.2801724 L114.914348,80.3189655 L0.648074369,80.3189655 L0.648074369,67.2801724 Z M0.64792936,35.2800293 L114.914203,35.2800293 L114.914203,48.3188224 L0.64792936,48.3188224 L0.64792936,35.2800293 Z M0.648074369,0.900862069 L114.914348,0.900862069 L114.914348,13.9396552 L0.648074369,13.9396552 L0.648074369,0.900862069 Z" id="Combined-Shape"></path>
                                <rect id="Rectangle-14" x="131" y="0.900862069" width="116.320053" height="79.4181034"></rect>
                            </g>
                        </g>
                    </g>
                </g>
            </g>
        </g>
        <text id="brigadehub" font-family="SourceSansPro-Regular, Source Sans Pro" font-size="379" font-weight="normal" fill="#399FD2">
            <tspan x="1105" y="373">brigadehub</tspan>
        </text>
    </g>
</svg>