<?xml version="1.0" encoding="UTF-8" standalone="no"?>
<svg width="533px" height="80px" viewBox="0 0 533 80" version="1.1" xmlns="http://www.w3.org/2000/svg" xmlns:xlink="http://www.w3.org/1999/xlink">
    <!-- Generator: Sketch 41.2 (35397) - http://www.bohemiancoding.com/sketch -->
    <title>Slice 1</title>
    <desc>Created with Sketch.</desc>
    <defs></defs>
    <g id="Page-1" stroke="none" stroke-width="1" fill="none" fill-rule="evenodd">
        <g id="logo-white" transform="translate(0.000000, 18.000000)">
            <g id="Page-1">
                <g>
                    <g id="logo-white">
                        <g id="Group-4">
                            <rect id="Rectangle-21" fill="#FFFFFF" transform="translate(132.611155, 28.070191) rotate(25.000000) translate(-132.611155, -28.070191) " x="129.328021" y="-3.11969828e-08" width="6.56626806" height="56.1403829" rx="3.28313403"></rect>
                            <path d="M5.06725966,31.6959984 C5.13587478,31.7408974 5.20661038,31.7836353 5.27942606,31.824071 L6.54583606,32.5273299 L7.49701909,33.0621338 L7.50090105,33.0576937 L30.8982589,46.0506415 C32.5262718,46.9547046 34.5764356,46.3655427 35.4784619,44.7352857 C36.3806863,43.1046701 35.7923347,41.0507646 34.1647846,40.1469584 L13.7437033,28.8067872 L33.9766857,17.1040302 C35.5887013,16.1716404 36.1405198,14.107671 35.2102307,12.4934335 C34.2797371,10.8788409 32.219368,10.3262341 30.6078109,11.2583588 L11.2452963,22.4576371 L11.2467477,22.4535065 L0.0499328371,28.8750001 L5.06725966,31.6959984 Z" id="Combined-Shape" fill="#FFFFFF"></path>
                            <path d="M157.065521,31.886721 C157.134136,31.9316202 157.204872,31.9743579 157.277688,32.0147936 L158.544098,32.7180525 L159.495281,33.2528564 L159.499163,33.2484163 L182.896521,46.2413641 C184.524533,47.1454272 186.574697,46.5562653 187.476723,44.9260083 C188.378948,43.2953927 187.790596,41.2414872 186.163046,40.3376812 L165.741965,28.9975098 L185.974947,17.2947529 C187.586963,16.3623631 188.138781,14.2983937 187.208492,12.6841561 C186.277999,11.0695635 184.21763,10.5169567 182.606072,11.4490814 L163.243558,22.6483597 L163.245009,22.6442291 L152.048194,29.0657227 L157.065521,31.886721 Z" id="Combined-Shape" fill="#FFFFFF" transform="translate(169.973978, 28.830761) rotate(180.000000) translate(-169.973978, -28.830761) "></path>
                            <g id="Group-3" transform="translate(45.189907, 0.000000)">
                                <rect id="Rectangle-8" fill="#FFFFFF" x="1.42108547e-14" y="0" width="64.1646747" height="58" rx="4"></rect>
                                <path d="M64.1646747,7.27414821 L64.1646747,2.9517036 C64.1646747,1.32354763 62.8450135,0 61.2171288,0 L2.94754585,0 C1.31810632,0 1.42108547e-14,1.32152272 1.42108547e-14,2.9517036 L1.42108547e-14,7.27414821 L1.42108547e-14,10.75 L64.1646747,10.75 L64.1646747,7.27414821 Z" id="Combined-Shape" fill="#D8D8D8"></path>
                                <ellipse id="Oval-7" fill="#FF6059" cx="4.86852589" cy="5.375" rx="2.37184596" ry="2.37500001"></ellipse>
                                <ellipse id="Oval-7" fill="#FFBD2E" cx="10.6108898" cy="5.375" rx="2.37184596" ry="2.37500001"></ellipse>
                                <ellipse id="Oval-7" fill="#29CE42" cx="16.1035857" cy="5.375" rx="2.37184596" ry="2.37500001"></ellipse>
                                <path d="M6.24169987,47.2499999 L58.1726427,47.2499999 L58.1726427,50.0000001 L6.24169987,50.0000001 L6.24169987,47.2499999 Z M6.24169987,39.9999999 L58.1726427,39.9999999 L58.1726427,42.7500001 L6.24169987,42.7500001 L6.24169987,39.9999999 Z M6.24169987,32.7499999 L30.2977575,32.7499999 L30.2977575,35.5000001 L6.24169987,35.5000001 L6.24169987,32.7499999 Z M6.24166935,26.0008788 L30.2977269,26.0008788 L30.2977269,28.7508788 L6.24166935,28.7508788 L6.24166935,26.0008788 Z M6.24169987,18.75 L30.2977575,18.75 L30.2977575,21.5 L6.24169987,21.5 L6.24169987,18.75 Z" id="Combined-Shape" fill="#E6E6E6"></path>
                                <rect id="Rectangle-14" fill="#D8D8D8" x="33.6842105" y="18.75" width="24.4884322" height="16.75"></rect>
                            </g>
                        </g>
                    </g>
                </g>
            </g>
        </g>
        <text id="brigadehub" font-family="SourceSansPro-Regular, Source Sans Pro" font-size="64" font-weight="normal" fill="#FFFFFF">
            <tspan x="220" y="63">brigadehub</tspan>
        </text>
    </g>
</svg>