<?xml version="1.0" encoding="iso-8859-1"?>
<!-- Generator: Adobe Illustrator 17.0.0, SVG Export Plug-In . SVG Version: 6.00 Build 0)  -->
<!DOCTYPE svg PUBLIC "-//W3C//DTD SVG 1.1//EN" "http://www.w3.org/Graphics/SVG/1.1/DTD/svg11.dtd">
<svg version="1.1" id="_x30_34_x5F_integration" xmlns="http://www.w3.org/2000/svg" xmlns:xlink="http://www.w3.org/1999/xlink"
	 x="0px" y="0px" width="58px" height="66px" viewBox="0 0 58 66" style="enable-background:new 0 0 58 66;" xml:space="preserve">
<g>
	<g>
		<polygon style="fill:#F9E765;" points="29,41 5,29 1,37 5,39 5,53 29,65 53,53 53,39 57,37 53,29 		"/>
		<polygon style="fill:#6D6D6D;" points="53,29 29,17 5,29 29,41 		"/>
	</g>
	
		<rect x="1.584" y="34.528" transform="matrix(-0.8944 -0.4472 0.4472 -0.8944 10.9751 80.5909)" style="fill:none;stroke:#020210;stroke-width:2;stroke-linecap:round;stroke-linejoin:round;stroke-miterlimit:10;" width="26.833" height="8.944"/>
	
		<rect x="29.584" y="34.528" transform="matrix(0.8944 -0.4472 0.4472 0.8944 -12.9017 23.3475)" style="fill:none;stroke:#020210;stroke-width:2;stroke-linecap:round;stroke-linejoin:round;stroke-miterlimit:10;" width="26.833" height="8.944"/>
	
		<line style="fill:none;stroke:#020210;stroke-width:2;stroke-linecap:round;stroke-linejoin:round;stroke-miterlimit:10;" x1="53" y1="29" x2="29" y2="17"/>
	
		<line style="fill:none;stroke:#020210;stroke-width:2;stroke-linecap:round;stroke-linejoin:round;stroke-miterlimit:10;" x1="29" y1="17" x2="5" y2="29"/>
	
		<line style="fill:none;stroke:#020210;stroke-width:2;stroke-linecap:round;stroke-linejoin:round;stroke-miterlimit:10;" x1="5" y1="39" x2="5" y2="53"/>
	
		<line style="fill:none;stroke:#020210;stroke-width:2;stroke-linecap:round;stroke-linejoin:round;stroke-miterlimit:10;" x1="5" y1="53" x2="29" y2="65"/>
	
		<line style="fill:none;stroke:#020210;stroke-width:2;stroke-linecap:round;stroke-linejoin:round;stroke-miterlimit:10;" x1="29" y1="65" x2="53" y2="53"/>
	
		<line style="fill:none;stroke:#020210;stroke-width:2;stroke-linecap:round;stroke-linejoin:round;stroke-miterlimit:10;" x1="53" y1="53" x2="53" y2="39"/>
	
		<line style="fill:none;stroke:#020210;stroke-width:2;stroke-linecap:round;stroke-linejoin:round;stroke-miterlimit:10;" x1="29" y1="65" x2="29" y2="41"/>
	<g>
		<g>
			
				<line style="fill:none;stroke:#020210;stroke-width:2;stroke-linecap:round;stroke-linejoin:round;stroke-miterlimit:10;" x1="53" y1="13" x2="53" y2="15"/>
			
				<line style="fill:none;stroke:#020210;stroke-width:2;stroke-linecap:round;stroke-linejoin:round;stroke-miterlimit:10;" x1="53" y1="19" x2="53" y2="21"/>
		</g>
		<g>
			
				<line style="fill:none;stroke:#020210;stroke-width:2;stroke-linecap:round;stroke-linejoin:round;stroke-miterlimit:10;" x1="57" y1="17" x2="55" y2="17"/>
			
				<line style="fill:none;stroke:#020210;stroke-width:2;stroke-linecap:round;stroke-linejoin:round;stroke-miterlimit:10;" x1="51" y1="17" x2="49" y2="17"/>
		</g>
	</g>
	<g>
		<g>
			
				<line style="fill:none;stroke:#020210;stroke-width:2;stroke-linecap:round;stroke-linejoin:round;stroke-miterlimit:10;" x1="5" y1="13" x2="5" y2="15"/>
			
				<line style="fill:none;stroke:#020210;stroke-width:2;stroke-linecap:round;stroke-linejoin:round;stroke-miterlimit:10;" x1="5" y1="19" x2="5" y2="21"/>
		</g>
		<g>
			
				<line style="fill:none;stroke:#020210;stroke-width:2;stroke-linecap:round;stroke-linejoin:round;stroke-miterlimit:10;" x1="9" y1="17" x2="7" y2="17"/>
			
				<line style="fill:none;stroke:#020210;stroke-width:2;stroke-linecap:round;stroke-linejoin:round;stroke-miterlimit:10;" x1="3" y1="17" x2="1" y2="17"/>
		</g>
	</g>
	<g>
		<g>
			
				<line style="fill:none;stroke:#020210;stroke-width:2;stroke-linecap:round;stroke-linejoin:round;stroke-miterlimit:10;" x1="17" y1="7" x2="17" y2="9"/>
			
				<line style="fill:none;stroke:#020210;stroke-width:2;stroke-linecap:round;stroke-linejoin:round;stroke-miterlimit:10;" x1="17" y1="13" x2="17" y2="15"/>
		</g>
		<g>
			
				<line style="fill:none;stroke:#020210;stroke-width:2;stroke-linecap:round;stroke-linejoin:round;stroke-miterlimit:10;" x1="21" y1="11" x2="19" y2="11"/>
			
				<line style="fill:none;stroke:#020210;stroke-width:2;stroke-linecap:round;stroke-linejoin:round;stroke-miterlimit:10;" x1="15" y1="11" x2="13" y2="11"/>
		</g>
	</g>
	<g>
		<g>
			
				<line style="fill:none;stroke:#020210;stroke-width:2;stroke-linecap:round;stroke-linejoin:round;stroke-miterlimit:10;" x1="41" y1="7" x2="41" y2="9"/>
			
				<line style="fill:none;stroke:#020210;stroke-width:2;stroke-linecap:round;stroke-linejoin:round;stroke-miterlimit:10;" x1="41" y1="13" x2="41" y2="15"/>
		</g>
		<g>
			
				<line style="fill:none;stroke:#020210;stroke-width:2;stroke-linecap:round;stroke-linejoin:round;stroke-miterlimit:10;" x1="45" y1="11" x2="43" y2="11"/>
			
				<line style="fill:none;stroke:#020210;stroke-width:2;stroke-linecap:round;stroke-linejoin:round;stroke-miterlimit:10;" x1="39" y1="11" x2="37" y2="11"/>
		</g>
	</g>
	<g>
		<g>
			
				<line style="fill:none;stroke:#020210;stroke-width:2;stroke-linecap:round;stroke-linejoin:round;stroke-miterlimit:10;" x1="29" y1="1" x2="29" y2="3"/>
			
				<line style="fill:none;stroke:#020210;stroke-width:2;stroke-linecap:round;stroke-linejoin:round;stroke-miterlimit:10;" x1="29" y1="7" x2="29" y2="9"/>
		</g>
		<g>
			
				<line style="fill:none;stroke:#020210;stroke-width:2;stroke-linecap:round;stroke-linejoin:round;stroke-miterlimit:10;" x1="33" y1="5" x2="31" y2="5"/>
			
				<line style="fill:none;stroke:#020210;stroke-width:2;stroke-linecap:round;stroke-linejoin:round;stroke-miterlimit:10;" x1="27" y1="5" x2="25" y2="5"/>
		</g>
	</g>
	
		<line style="fill:none;stroke:#020210;stroke-width:2;stroke-linecap:round;stroke-linejoin:round;stroke-miterlimit:10;" x1="29" y1="41" x2="29" y2="17"/>
</g>
</svg>
