<?xml version="1.0" encoding="UTF-8" standalone="no"?>
<svg width="1308px" height="843px" viewBox="0 0 1308 843" version="1.1" xmlns="http://www.w3.org/2000/svg" xmlns:xlink="http://www.w3.org/1999/xlink">
    <!-- Generator: Sketch 41.2 (35397) - http://www.bohemiancoding.com/sketch -->
    <title>Slice 1</title>
    <desc>Created with Sketch.</desc>
    <defs></defs>
    <g id="Page-1" stroke="none" stroke-width="1" fill="none" fill-rule="evenodd">
        <path d="M986.5,337.5 L851,517" id="Line" stroke="#979797" stroke-width="22" stroke-linecap="square" transform="translate(919.000000, 427.000000) scale(-1, 1) translate(-919.000000, -427.000000) "></path>
        <path d="M423.5,340.5 L288,520" id="Line" stroke="#979797" stroke-width="22" stroke-linecap="square"></path>
        <g id="logo-raw-color" transform="translate(270.000000, 0.000000)">
            <g id="Page-1">
                <g id="logo-blue">
                    <g id="Group-4">
                        <rect id="Rectangle-21" fill="#D1163D" transform="translate(629.902988, 133.091425) rotate(25.000000) translate(-629.902988, -133.091425) " x="614.308101" y="-1.47916637e-07" width="31.1897733" height="266.18285" rx="15.5948866"></rect>
                        <path d="M24.0694834,150.282751 C24.3954052,150.495634 24.7313993,150.698271 25.0772738,150.889992 L31.0927213,154.224409 L35.6108407,156.760117 L35.62928,156.739065 L146.76673,218.343559 C154.499791,222.630065 164.238069,219.836625 168.522694,212.106958 C172.80826,204.375591 170.01359,194.637246 162.282727,190.351958 L65.2825905,136.583905 L161.389257,81.096695 C169.046331,76.6758814 171.667469,66.8898196 167.248596,59.2361069 C162.828751,51.5807112 153.041998,48.9605926 145.387102,53.3801493 L53.4151574,106.480176 L53.4220516,106.460591 L0.237180976,136.907328 L24.0694834,150.282751 Z" id="Combined-Shape" fill="#D1163D"></path>
                        <path d="M746.061225,151.187039 C746.387147,151.399923 746.723141,151.602559 747.069016,151.79428 L753.084463,155.128697 L757.602582,157.664405 L757.621022,157.643353 L868.758472,219.247847 C876.491533,223.534353 886.229811,220.740913 890.514436,213.011246 C894.800002,205.279879 892.005332,195.541534 884.274469,191.256247 L787.274332,137.488193 L883.380999,82.0009834 C891.038072,77.5801697 893.659211,67.794108 889.240338,60.1403952 C884.820493,52.4849996 875.03374,49.8648809 867.378843,54.2844376 L775.406899,107.384464 L775.413793,107.364879 L722.228923,137.811616 L746.061225,151.187039 Z" id="Combined-Shape" fill="#D1163D" transform="translate(807.376396, 136.697576) rotate(180.000000) translate(-807.376396, -136.697576) "></path>
                        <g id="Group-3" transform="translate(214.652058, 0.000000)">
                            <rect id="Rectangle-8" fill="#54B8EA" x="0" y="0" width="304.782205" height="275" rx="14"></rect>
                            <path d="M304.782205,34.4894958 L304.782205,13.9951464 C304.782205,6.27544136 298.513814,0 290.781362,0 L14.0008428,0 C6.26100502,0 0,6.26584047 0,13.9951464 L0,34.4894958 L0,50.9698276 L304.782205,50.9698276 L304.782205,34.4894958 Z" id="Combined-Shape" fill="#399FD2"></path>
                            <ellipse id="Oval-7" fill="#FF6059" cx="23.125498" cy="25.4849138" rx="11.2662683" ry="11.2607759"></ellipse>
                            <ellipse id="Oval-7" fill="#FFBD2E" cx="50.4017264" cy="25.4849138" rx="11.2662683" ry="11.2607759"></ellipse>
                            <ellipse id="Oval-7" fill="#29CE42" cx="76.4920319" cy="25.4849138" rx="11.2662683" ry="11.2607759"></ellipse>
                            <g id="Group" opacity="0.4" transform="translate(29.000000, 88.000000)" fill="#FFFFFF">
                                <path d="M0.648074369,136.030172 L247.320053,136.030172 L247.320053,149.068966 L0.648074369,149.068966 L0.648074369,136.030172 Z M0.648074369,101.655172 L247.320053,101.655172 L247.320053,114.693966 L0.648074369,114.693966 L0.648074369,101.655172 Z M0.648074369,67.2801724 L114.914348,67.2801724 L114.914348,80.3189655 L0.648074369,80.3189655 L0.648074369,67.2801724 Z M0.64792936,35.2800293 L114.914203,35.2800293 L114.914203,48.3188224 L0.64792936,48.3188224 L0.64792936,35.2800293 Z M0.648074369,0.900862069 L114.914348,0.900862069 L114.914348,13.9396552 L0.648074369,13.9396552 L0.648074369,0.900862069 Z" id="Combined-Shape"></path>
                                <rect id="Rectangle-14" x="131" y="0.900862069" width="116.320053" height="79.4181034"></rect>
                            </g>
                        </g>
                    </g>
                </g>
            </g>
        </g>
        <g id="logo-raw-color" transform="translate(2.000000, 568.000000)">
            <g id="Page-1">
                <g id="logo-blue">
                    <g id="Group-4">
                        <rect id="Rectangle-21" fill="#D1163D" transform="translate(330.117131, 69.691510) rotate(25.000000) translate(-330.117131, -69.691510) " x="321.944223" y="-7.74545299e-08" width="16.3458162" height="139.38302" rx="8.17290812"></rect>
                        <path d="M12.6142421,78.6935133 C12.78505,78.8049865 12.9611365,78.9110946 13.1424011,79.0114867 L16.2949536,80.7575087 L18.6627922,82.0852976 L18.6724558,82.074274 L76.9169425,114.332627 C80.9696553,116.577198 86.0732545,115.114451 88.3187243,111.066916 C90.5646872,107.018491 89.1000673,101.91914 85.0485064,99.6752071 L34.2130485,71.5202993 L84.5802601,42.4651785 C88.59315,40.1502797 89.9668259,35.0259419 87.6509999,31.0181796 C85.3346646,27.009536 80.2056608,25.6375467 76.1939124,27.9517873 L27.9936099,55.7568922 L27.997223,55.7466367 L0.124300892,71.6896554 L12.6142421,78.6935133 Z" id="Combined-Shape" fill="#D1163D"></path>
                        <path d="M390.992893,79.1670314 C391.163701,79.2785052 391.339787,79.3846128 391.521052,79.4850049 L394.673605,81.2310269 L397.041443,82.5588158 L397.051107,82.5477922 L455.295594,114.806145 C459.348306,117.050716 464.451906,115.587969 466.697375,111.540434 C468.943338,107.492009 467.478718,102.392658 463.427158,100.148726 L412.591699,71.9938175 L462.958911,42.9386968 C466.971801,40.6237979 468.345477,35.4994602 466.029651,31.4916978 C463.713316,27.4830543 458.584312,26.1110649 454.572563,28.4253055 L406.372261,56.2304103 L406.375874,56.2201549 L378.502952,72.1631736 L390.992893,79.1670314 Z" id="Combined-Shape" fill="#D1163D" transform="translate(423.126711, 71.579821) rotate(180.000000) translate(-423.126711, -71.579821) "></path>
                        <g id="Group-3" transform="translate(112.494024, 0.000000)">
                            <rect id="Rectangle-8" fill="#54B8EA" x="0" y="0" width="159.729084" height="144" rx="14"></rect>
                            <path d="M159.729084,18.0599542 L159.729084,7.32836757 C159.729084,3.28604929 156.44397,0 152.391576,0 L7.33750776,0 C3.28124339,0 0,3.28102192 0,7.32836757 L0,18.0599542 L0,26.6896552 L159.729084,26.6896552 L159.729084,18.0599542 Z" id="Combined-Shape" fill="#399FD2"></path>
                            <ellipse id="Oval-7" fill="#FF6059" cx="12.1195219" cy="13.3448276" rx="5.90438249" ry="5.89655174"></ellipse>
                            <ellipse id="Oval-7" fill="#FFBD2E" cx="26.4143426" cy="13.3448276" rx="5.90438249" ry="5.89655174"></ellipse>
                            <ellipse id="Oval-7" fill="#29CE42" cx="40.0876494" cy="13.3448276" rx="5.90438249" ry="5.89655174"></ellipse>
                            <g id="Group" opacity="0.4" transform="translate(15.198208, 46.080000)" fill="#FFFFFF">
                                <path d="M0.339640319,71.2303446 L129.614541,71.2303446 L129.614541,78.0579313 L0.339640319,78.0579313 L0.339640319,71.2303446 Z M0.339640319,53.2303446 L129.614541,53.2303446 L129.614541,60.0579313 L0.339640319,60.0579313 L0.339640319,53.2303446 Z M0.339640319,35.2303448 L60.2238688,35.2303448 L60.2238688,42.057931 L0.339640319,42.057931 L0.339640319,35.2303448 Z M0.339564323,18.4739063 L60.2237928,18.4739063 L60.2237928,25.3014925 L0.339564323,25.3014925 L0.339564323,18.4739063 Z M0.339640319,0.471724138 L60.2238688,0.471724138 L60.2238688,7.29931036 L0.339640319,7.29931036 L0.339640319,0.471724138 Z" id="Combined-Shape"></path>
                                <rect id="Rectangle-14" x="68.6539754" y="0.471724138" width="60.9605653" height="41.5862069"></rect>
                            </g>
                        </g>
                    </g>
                </g>
            </g>
        </g>
        <g id="logo-raw-color" transform="translate(802.000000, 568.000000)">
            <g id="Page-1">
                <g id="logo-blue">
                    <g id="Group-4">
                        <rect id="Rectangle-21" fill="#D1163D" transform="translate(330.117131, 69.691510) rotate(25.000000) translate(-330.117131, -69.691510) " x="321.944223" y="-7.74545299e-08" width="16.3458162" height="139.38302" rx="8.17290812"></rect>
                        <path d="M12.6142421,78.6935133 C12.78505,78.8049865 12.9611365,78.9110946 13.1424011,79.0114867 L16.2949536,80.7575087 L18.6627922,82.0852976 L18.6724558,82.074274 L76.9169425,114.332627 C80.9696553,116.577198 86.0732545,115.114451 88.3187243,111.066916 C90.5646872,107.018491 89.1000673,101.91914 85.0485064,99.6752071 L34.2130485,71.5202993 L84.5802601,42.4651785 C88.59315,40.1502797 89.9668259,35.0259419 87.6509999,31.0181796 C85.3346646,27.009536 80.2056608,25.6375467 76.1939124,27.9517873 L27.9936099,55.7568922 L27.997223,55.7466367 L0.124300892,71.6896554 L12.6142421,78.6935133 Z" id="Combined-Shape" fill="#D1163D"></path>
                        <path d="M390.992893,79.1670314 C391.163701,79.2785052 391.339787,79.3846128 391.521052,79.4850049 L394.673605,81.2310269 L397.041443,82.5588158 L397.051107,82.5477922 L455.295594,114.806145 C459.348306,117.050716 464.451906,115.587969 466.697375,111.540434 C468.943338,107.492009 467.478718,102.392658 463.427158,100.148726 L412.591699,71.9938175 L462.958911,42.9386968 C466.971801,40.6237979 468.345477,35.4994602 466.029651,31.4916978 C463.713316,27.4830543 458.584312,26.1110649 454.572563,28.4253055 L406.372261,56.2304103 L406.375874,56.2201549 L378.502952,72.1631736 L390.992893,79.1670314 Z" id="Combined-Shape" fill="#D1163D" transform="translate(423.126711, 71.579821) rotate(180.000000) translate(-423.126711, -71.579821) "></path>
                        <g id="Group-3" transform="translate(112.494024, 0.000000)">
                            <rect id="Rectangle-8" fill="#54B8EA" x="0" y="0" width="159.729084" height="144" rx="14"></rect>
                            <path d="M159.729084,18.0599542 L159.729084,7.32836757 C159.729084,3.28604929 156.44397,0 152.391576,0 L7.33750776,0 C3.28124339,0 0,3.28102192 0,7.32836757 L0,18.0599542 L0,26.6896552 L159.729084,26.6896552 L159.729084,18.0599542 Z" id="Combined-Shape" fill="#399FD2"></path>
                            <ellipse id="Oval-7" fill="#FF6059" cx="12.1195219" cy="13.3448276" rx="5.90438249" ry="5.89655174"></ellipse>
                            <ellipse id="Oval-7" fill="#FFBD2E" cx="26.4143426" cy="13.3448276" rx="5.90438249" ry="5.89655174"></ellipse>
                            <ellipse id="Oval-7" fill="#29CE42" cx="40.0876494" cy="13.3448276" rx="5.90438249" ry="5.89655174"></ellipse>
                            <g id="Group" opacity="0.4" transform="translate(15.198208, 46.080000)" fill="#FFFFFF">
                                <path d="M0.339640319,71.2303446 L129.614541,71.2303446 L129.614541,78.0579313 L0.339640319,78.0579313 L0.339640319,71.2303446 Z M0.339640319,53.2303446 L129.614541,53.2303446 L129.614541,60.0579313 L0.339640319,60.0579313 L0.339640319,53.2303446 Z M0.339640319,35.2303448 L60.2238688,35.2303448 L60.2238688,42.057931 L0.339640319,42.057931 L0.339640319,35.2303448 Z M0.339564323,18.4739063 L60.2237928,18.4739063 L60.2237928,25.3014925 L0.339564323,25.3014925 L0.339564323,18.4739063 Z M0.339640319,0.471724138 L60.2238688,0.471724138 L60.2238688,7.29931036 L0.339640319,7.29931036 L0.339640319,0.471724138 Z" id="Combined-Shape"></path>
                                <rect id="Rectangle-14" x="68.6539754" y="0.471724138" width="60.9605653" height="41.5862069"></rect>
                            </g>
                        </g>
                    </g>
                </g>
            </g>
        </g>
        <text id="core-+-API" font-family="SourceSansPro-Regular, Source Sans Pro" font-size="84" font-weight="normal" fill="#000000">
            <tspan x="464.552" y="357">core + API</tspan>
        </text>
        <text id="admin-portal" font-family="SourceSansPro-Regular, Source Sans Pro" font-size="84" font-weight="normal" fill="#000000">
            <tspan x="0.276" y="820">admin portal</tspan>
        </text>
        <text id="public-frontend" font-family="SourceSansPro-Regular, Source Sans Pro" font-size="84" font-weight="normal" fill="#000000">
            <tspan x="765.306" y="820">public frontend</tspan>
        </text>
    </g>
</svg>