<?xml version="1.0" encoding="UTF-8" standalone="no"?>
<svg width="205px" height="192px" viewBox="0 0 205 192" version="1.1" xmlns="http://www.w3.org/2000/svg" xmlns:xlink="http://www.w3.org/1999/xlink">
    <!-- Generator: Sketch 41.2 (35397) - http://www.bohemiancoding.com/sketch -->
    <title>Slice 1</title>
    <desc>Created with Sketch.</desc>
    <defs></defs>
    <g id="Page-1" stroke="none" stroke-width="1" fill="none" fill-rule="evenodd">
        <g id="tech_data_analytics" transform="translate(-177.000000, -808.000000)">
            <polygon id="Fill-1" fill="#FFFFFF" points="0.06 1199.94 1280 1199.94 1280 0 0.06 0"></polygon>
            <path d="M375.813,904 C375.813,957.02 332.832,1000 279.813,1000 C226.793,1000 183.813,957.02 183.813,904 C183.813,850.98 226.793,808 279.813,808 C332.832,808 375.813,850.98 375.813,904" id="Fill-7" fill="#AFAFAB"></path>
            <polygon id="Fill-8" fill="#FFFFFF" points="215.813 920 343.813 920 343.813 848 215.813 848"></polygon>
            <polygon id="Fill-9" fill="#F6E667" points="271.813 912 336 912 336 896 271.813 896"></polygon>
            <polygon id="Fill-10" fill="#DE485D" points="248 912 264 912 264 896 248 896"></polygon>
            <polygon id="Fill-11" fill="#DE485D" points="224 912 240 912 240 896 224 896"></polygon>
            <polygon id="Fill-12" fill="#4CBAB7" points="224 888 336 888 336 856 224 856"></polygon>
            <polygon id="Fill-13" fill="#CDCCC7" points="247.813 968 311.813 968 311.813 960 247.813 960"></polygon>
            <path d="M351.813,928 L351.813,936 C351.813,940.422 348.234,944 343.813,944 L215.813,944 C211.391,944 207.813,940.422 207.813,936 L207.813,928" id="Fill-14" fill="#CDCCC7"></path>
            <polyline id="Fill-15" fill="#CDCCC7" points="293.813 944 265.813 944 263.813 960 295.813 960 293.813 944"></polyline>
            <path d="M215.813,920 L343.813,920 L343.813,848 L215.813,848 L215.813,920 Z M343.813,840 L215.813,840 C211.391,840 207.813,843.578 207.813,848 L207.813,928 L351.813,928 L351.813,848 C351.813,843.578 348.234,840 343.813,840 L343.813,840 Z" id="Fill-16" fill="#666763"></path>
            <path d="M215.813,920 L343.813,920 L343.813,848 L215.813,848 L215.813,920 Z M343.813,840 L215.813,840 C211.391,840 207.813,843.578 207.813,848 L207.813,928 L351.813,928 L351.813,848 C351.813,843.578 348.234,840 343.813,840 Z M351.813,928 L351.813,936 C351.813,940.422 348.234,944 343.813,944 L215.813,944 C211.391,944 207.813,940.422 207.813,936 L207.813,928 L351.813,928 Z M293.813,944 L265.813,944 L263.813,960 L295.813,960 L293.813,944 Z M247.813,968 L311.813,968 L311.813,960 L247.813,960 L247.813,968 Z M275.813,936 L283.813,936 L275.813,936 Z" id="Stroke-17" stroke="#0A0A08" stroke-width="4" stroke-linecap="round" stroke-linejoin="round"></path>
            <path d="M336,864 C331.578,864 328,867.578 328,872 C328,876.422 324.422,880 320,880 C315.578,880 312,876.422 312,872 C312,867.578 308.422,864 304,864 C299.578,864 296,867.578 296,872 C296,876.422 292.422,880 288,880 C283.578,880 280,876.422 280,872 C280,867.578 276.422,864 272,864 C267.578,864 264,867.578 264,872 C264,876.422 260.422,880 256,880 C251.578,880 248,876.422 248,872 C248,867.578 244.422,864 240,864 C235.578,864 232,867.578 232,872 C232,876.422 228.422,880 224,880" id="Stroke-18" stroke="#FFFFFF" stroke-width="4" stroke-linecap="round" stroke-linejoin="round"></path>
            <path d="M224,912 L240,912 L240,896 L224,896 L224,912 Z M248,912 L264,912 L264,896 L248,896 L248,912 Z M271.813,912 L336,912 L336,896 L271.813,896 L271.813,912 Z M279.813,904 L328,904 L279.813,904 Z M256,912 L256,896 L256,912 Z M224,896 L240,912 L224,896 Z M351.813,920 L368,920 L351.813,920 Z M368,920 L376,928 L368,920 Z M351.813,904.25 L375.813,904.25 L351.813,904.25 Z M351.813,864 L367.586,864 L351.813,864 Z M367.586,864 L375.168,856.418 L367.586,864 Z" id="Stroke-19" stroke="#0A0A08" stroke-width="4" stroke-linecap="round" stroke-linejoin="round"></path>
            <path d="M380,856 C380,858.209 378.209,860 376,860 C373.791,860 372,858.209 372,856 C372,853.791 373.791,852 376,852 C378.209,852 380,853.791 380,856" id="Fill-20" fill="#FFFFFF"></path>
            <path d="M380,856 C380,858.209 378.209,860 376,860 C373.791,860 372,858.209 372,856 C372,853.791 373.791,852 376,852 C378.209,852 380,853.791 380,856 Z" id="Stroke-21" stroke="#0A0A08" stroke-width="4" stroke-linecap="round" stroke-linejoin="round"></path>
            <path d="M380,904 C380,906.209 378.209,908 376,908 C373.791,908 372,906.209 372,904 C372,901.791 373.791,900 376,900 C378.209,900 380,901.791 380,904" id="Fill-22" fill="#FFFFFF"></path>
            <path d="M380,904 C380,906.209 378.209,908 376,908 C373.791,908 372,906.209 372,904 C372,901.791 373.791,900 376,900 C378.209,900 380,901.791 380,904 Z" id="Stroke-23" stroke="#0A0A08" stroke-width="4" stroke-linecap="round" stroke-linejoin="round"></path>
            <path d="M380,928 C380,930.209 378.209,932 376,932 C373.791,932 372,930.209 372,928 C372,925.791 373.791,924 376,924 C378.209,924 380,925.791 380,928" id="Fill-24" fill="#FFFFFF"></path>
            <path d="M380,928 C380,930.209 378.209,932 376,932 C373.791,932 372,930.209 372,928 C372,925.791 373.791,924 376,924 C378.209,924 380,925.791 380,928 Z M208,864 L191.813,864 L208,864 Z M191.813,864 L183.813,856 L191.813,864 Z M208,879.75 L184,879.75 L208,879.75 Z M208,920 L192.227,920 L208,920 Z M192.227,920 L184.645,927.582 L192.227,920 Z" id="Stroke-25" stroke="#0A0A08" stroke-width="4" stroke-linecap="round" stroke-linejoin="round"></path>
            <path d="M179.813,928 C179.813,925.791 181.604,924 183.813,924 C186.021,924 187.813,925.791 187.813,928 C187.813,930.209 186.021,932 183.813,932 C181.604,932 179.813,930.209 179.813,928" id="Fill-26" fill="#FFFFFF"></path>
            <path d="M179.813,928 C179.813,925.791 181.604,924 183.813,924 C186.021,924 187.813,925.791 187.813,928 C187.813,930.209 186.021,932 183.813,932 C181.604,932 179.813,930.209 179.813,928 Z" id="Stroke-27" stroke="#0A0A08" stroke-width="4" stroke-linecap="round" stroke-linejoin="round"></path>
            <path d="M179.813,880 C179.813,877.791 181.604,876 183.813,876 C186.021,876 187.813,877.791 187.813,880 C187.813,882.209 186.021,884 183.813,884 C181.604,884 179.813,882.209 179.813,880" id="Fill-28" fill="#FFFFFF"></path>
            <path d="M179.813,880 C179.813,877.791 181.604,876 183.813,876 C186.021,876 187.813,877.791 187.813,880 C187.813,882.209 186.021,884 183.813,884 C181.604,884 179.813,882.209 179.813,880 Z" id="Stroke-29" stroke="#0A0A08" stroke-width="4" stroke-linecap="round" stroke-linejoin="round"></path>
            <path d="M179.813,856 C179.813,853.791 181.604,852 183.813,852 C186.021,852 187.813,853.791 187.813,856 C187.813,858.209 186.021,860 183.813,860 C181.604,860 179.813,858.209 179.813,856" id="Fill-30" fill="#FFFFFF"></path>
            <path d="M179.813,856 C179.813,853.791 181.604,852 183.813,852 C186.021,852 187.813,853.791 187.813,856 C187.813,858.209 186.021,860 183.813,860 C181.604,860 179.813,858.209 179.813,856 Z M224,888 L336,888 L336,856 L224,856 L224,888 Z" id="Stroke-31" stroke="#0A0A08" stroke-width="4" stroke-linecap="round" stroke-linejoin="round"></path>
            <path d="M976.947,858.734 C974.393,857.008 971.313,856 968,856 C959.164,856 952,863.164 952,872 C943.156,872 936,879.156 936,888 C936,896.844 943.156,904 952,904 L1048,904 C1056.84,904 1064,896.844 1064,888 C1064,879.156 1056.84,872 1048,872 C1048,863.164 1040.84,856 1032,856 C1028.82,856 1025.85,856.93 1023.36,858.531 L1023.38,858.539 C1020.91,847.91 1011.39,840 1000,840 C988.393,840 978.723,848.219 976.486,859.16 L976.947,858.734 Z M920,968 L1080,968 L1080,944 L920,944 L920,968 Z M928,960 L1072,960 L1072,952 L928,952 L928,960 Z M1040,960 L1040,952 L1040,960 Z M992,936 L992,872 L992,936 Z M1008,872 L1008,936 L1008,872 Z M1008,936 L1000,928 L1008,936 Z M1008,936 L1016,928 L1008,936 Z M992,872 L1000,880 L992,872 Z M992,872 L984,880 L992,872 Z M256,432 L256,592 L152,592 L152,432 L256,432 Z" id="Stroke-46" stroke="#0A0A08" stroke-width="4" stroke-linecap="round" stroke-linejoin="round"></path>
        </g>
    </g>
</svg>